<svg t="1723100955738" class="icon" viewBox="0 0 1309 1024" version="1.1" xmlns="http://www.w3.org/2000/svg" p-id="19565" width="200" height="200"><path d="M658.61175 59.166067A454.955918 454.955918 0 0 1 1082.220033 353.231802l13.597816 36.433842 38.821244 1.764602a120.719538 120.719538 0 0 1 0 241.231475l-38.717444 1.764602-13.701616 36.433841a452.153315 452.153315 0 0 1-847.112765 0l-14.428217-38.094643h-40.689646a121.030938 121.030938 0 1 1 0-241.958076h40.793447l14.324416-38.198443a455.059719 455.059719 0 0 1 423.504482-293.754335m0-58.854667a511.423183 511.423183 0 0 0-478.622345 332.160378 179.885605 179.885605 0 0 0 0 359.77121 511.111782 511.111782 0 0 0 957.452291 0 179.678005 179.678005 0 0 0 0-358.940809 511.423183 511.423183 0 0 0-478.726145-332.160378z" p-id="19566"></path><path d="M672.105766 843.168361a176.460201 176.460201 0 0 1-176.460201-176.460201h67.781477a108.990124 108.990124 0 1 0 217.980248 0h67.677677a176.460201 176.460201 0 0 1-176.979201 176.460201zM880.951604 395.16705H471.563937a93.420106 93.420106 0 1 0 0 186.113612h99.232913a92.693506 92.693506 0 0 0 88.645301-66.120675h33.631239a92.797306 92.797306 0 0 0 88.956701 66.120675h99.232913a93.420106 93.420106 0 1 0 0-186.113612z" p-id="19567"></path></svg>