<svg t="1723100125704" class="icon" viewBox="0 0 1024 1024" version="1.1" xmlns="http://www.w3.org/2000/svg" p-id="2517" width="200" height="200"><path d="M931.4304 372.736H91.47733333c-15.29173333 0-27.8528-12.56106667-27.8528-27.8528s12.56106667-27.8528 27.8528-27.8528h840.4992c15.29173333 0 27.8528 12.56106667 27.8528 27.8528s-13.1072 27.8528-28.39893333 27.8528z" fill="#2C2C2C" p-id="2518"></path><path d="M312.66133333 372.736c-3.2768 0-6.5536-0.54613333-9.28426666-1.6384-14.19946667-5.46133333-21.84533333-21.2992-16.93013334-35.49866667l63.35146667-174.21653333c3.82293333-10.92266667 14.19946667-18.56853333 26.2144-18.56853333h254.49813333c10.37653333 0 20.20693333 6.00746667 25.12213334 15.29173333l86.28906666 174.21653333c6.5536 13.65333333 1.09226667 30.58346667-12.56106666 37.13706667s-30.58346667 1.09226667-37.13706667-12.56106667L614.12693333 197.97333333h-218.45333333l-56.79786667 156.74026667c-3.82293333 10.92266667-14.7456 18.0224-26.2144 18.0224z" fill="#2C2C2C" p-id="2519"></path><path d="M704.78506667 879.54773333H272.24746667c-45.32906667 0-107.58826667-10.92266667-123.97226667-104.31146666-8.192-44.2368-15.83786667-133.80266667-22.9376-264.87466667-4.9152-88.4736-7.64586667-163.84-7.64586667-164.38613333-0.54613333-15.29173333 11.4688-28.39893333 26.76053334-28.94506667s28.39893333 11.4688 28.94506666 26.76053333c0 0.54613333 2.73066667 75.91253333 7.64586667 163.29386667 7.09973333 127.24906667 14.7456 216.81493333 21.84533333 258.32106667 8.73813333 49.69813333 29.4912 58.43626667 69.35893334 58.43626666h432.5376c64.44373333 0 87.38133333-15.83786667 95.57333333-65.536 12.01493333-73.728 56.79786667-413.42293333 57.344-416.69973333 2.18453333-15.29173333 15.83786667-26.2144 31.1296-24.02986667 15.29173333 2.18453333 26.2144 15.83786667 24.02986667 31.1296-1.6384 14.19946667-45.32906667 344.064-57.344 418.33813334-16.384 99.9424-89.01973333 112.50346667-150.7328 112.50346666z" fill="#2C2C2C" p-id="2520"></path><path d="M863.16373333 533.84533333h-709.97333333c-13.65333333 0-24.576-10.92266667-24.576-24.576s10.92266667-24.576 24.576-24.576h709.97333333c13.65333333 0 24.576 10.92266667 24.576 24.576 0 13.1072-10.92266667 24.576-24.576 24.576zM839.68 706.9696H164.6592c-13.65333333 0-24.576-10.92266667-24.576-24.576s10.92266667-24.576 24.576-24.576H839.68c13.65333333 0 24.576 10.92266667 24.576 24.576s-10.92266667 24.576-24.576 24.576z" fill="#2C2C2C" p-id="2521"></path><path d="M648.53333333 864.80213333c-13.65333333-1.09226667-23.48373333-13.1072-22.39146666-26.76053333l42.05226666-493.1584c1.09226667-13.65333333 13.1072-23.48373333 26.76053334-22.39146667 13.65333333 1.09226667 23.48373333 13.1072 22.39146666 26.76053334L675.29386667 842.41066667c-1.6384 13.65333333-13.1072 23.48373333-26.76053334 22.39146666z m-274.15893333 11.4688c-13.65333333 1.09226667-25.66826667-8.73813333-26.76053333-22.39146666l-43.14453334-505.17333334c-1.09226667-13.65333333 8.73813333-25.66826667 22.39146667-26.76053333 13.65333333-1.09226667 25.66826667 8.73813333 26.76053333 22.39146667l43.14453334 505.17333333c1.6384 13.65333333-8.73813333 25.12213333-22.39146667 26.76053333z" fill="#2C2C2C" p-id="2522"></path></svg>